The enduring friendship between the Walling and Ostroff families is tested when Nina, the prodigal Ostroff daughter, returns home for the holidays after a five-year absence and enters into an affair with David, head of the Walling family.

Release Date: Today
Retail Date: 13/Feb/2013
Runtime: 1h 26mn
Language: English
URL: http://www.imdb.com/title/tt1313139

Notes

Quick google search shows DVDR available all over P2P, so including proof to prevent
any wild theories

Video:

ID: 0
Format: MPEG-4 Visual
Format profile: Advanced Simple@L5
Format settings, BVOP: 2
Format settings, QPel: No
Format settings, GMC: No warppoints
Format settings, Matrix: Default (H.263)
Codec ID: XVID
Codec ID/Hint: XviD
Duration: 1h 26mn
Bit rate: 999 Kbps
Width: 640 pixels
Height: 352 pixels
Display aspect ratio: 16:9
Frame rate: 25.000 fps
Color space: YUV
Chroma subsampling: 4:2:0
Bit depth: 8 bits
Scan type: Progressive
Compression mode: Lossy
Bits/(Pixel*Frame): 0.177
Stream size: 620 MiB (89%)
Writing library: XviD 64

Audio:

ID: 1
Format: MPEG Audio
Format version: Version 1
Format profile: Layer 3
Mode: Joint stereo
Mode extension: MS Stereo
Codec ID: 55
Codec ID/Hint: MP3
Duration: 1h 26mn
Bit rate mode: Variable
Bit rate: 116 Kbps
Nominal bit rate: 128 Kbps
Channel(s): 2 channels
Sampling rate: 48.0 KHz
Compression mode: Lossy
Stream size: 72.0 MiB (10%)
Alignment: Aligned on interleaves
Interleave, duration: 24 ms (0.60 video frame)
Interleave, preload duration: 72 ms
Title: audio
Writing library: LAME3.99r
 
http://www.ultraimg.com/images/2tTGo.jpg 
http://www.ultraimg.com/images/NS5aQ.jpg 
http://www.ultraimg.com/images/d9iYp.jpg 
http://www.ultraimg.com/images/Vs9vL.jpg